<svg width="61" height="61" viewBox="0 0 61 61" fill="none" xmlns="http://www.w3.org/2000/svg">
<path d="M48.3897 32.4074C48.4818 41.6386 57.0921 44.7105 57.1875 44.7497C57.1147 44.9664 55.8117 49.1275 52.6512 53.4257C49.919 57.1417 47.0834 60.844 42.6165 60.9207C38.2273 60.996 36.8159 58.4986 31.7978 58.4986C26.7812 58.4986 25.2131 60.844 21.0583 60.996C16.7466 61.1478 13.4632 56.9776 10.7084 53.2753C5.07918 45.702 0.777294 31.8749 6.55363 22.5414C9.42319 17.9063 14.5513 14.9712 20.1174 14.8959C24.3514 14.8208 28.3478 17.5466 30.9361 17.5466C33.5228 17.5466 38.3792 14.2685 43.4846 14.75C45.6219 14.8328 51.6214 15.5534 55.4738 20.8008C55.1634 20.9799 48.3152 24.6897 48.3897 32.4074V32.4074ZM40.1407 9.73956C42.4298 7.16106 43.9705 3.57154 43.5502 0C40.2506 0.123407 36.2606 2.0461 33.8939 4.62318C31.7729 6.90531 29.9153 10.558 30.4165 14.0589C34.0943 14.3236 37.8514 12.3197 40.1407 9.73957" fill="black"/>
</svg>
