<svg width="37" height="22" viewBox="0 0 37 22" fill="none" xmlns="http://www.w3.org/2000/svg">
<path d="M4.20801 21.8507C4.19486 20.5584 3.28716 20.0703 3.28716 20.0703C3.28716 20.0703 6.8308 20.3679 6.91835 15.6966C6.91835 15.6966 7.27464 14.0214 15.2644 14.7125C15.9383 14.7712 17.5359 18.4897 17.6483 19.6879C17.7616 20.8872 17.8513 21.8507 17.8513 21.8507H24.001C23.9476 20.4055 22.8394 19.9353 22.217 19.4082C22.7447 14.8734 23.6268 10.5062 25.727 10.4098C27.3642 10.3353 28.811 9.83316 29.5178 9.3126C30.2252 8.79243 34.6797 8.69588 35.0623 8.26552C35.4505 7.83592 36.6475 6.59637 36.4055 6.072C36.1695 5.54432 33.9833 4.97186 33.9833 4.97186C33.9833 4.97186 33.7203 4.35107 33.5293 3.96574C33.3377 3.58499 31.2754 2.86853 31.2754 2.86853C31.2754 2.86853 30.8489 1.53013 30.5136 1.00335C30.1758 0.476051 29.0747 1.91037 29.0747 1.91037C29.0747 1.91037 25.2215 1.91571 23.9924 1.53013C22.317 1.00335 21.9069 0.0227938 19.5368 0.000149998C17.6941 -0.0157515 17.3918 1.2378 15.736 1.31146C14.0676 1.38982 10.9534 0.224934 6.61769 0.924475C2.2761 1.62427 0.596224 6.26078 0.264307 7.83974C-0.0718217 9.41425 1.22114 13.1084 1.36738 14.7269C1.51298 16.3407 0.310119 17.5555 0.0462188 18.3842C-0.213087 19.2069 0.70329 21.8505 0.70329 21.8505C0.70329 21.8505 4.21235 22.1868 4.20801 21.8507Z" fill="black"/>
</svg>
