<svg width="78" height="42" viewBox="0 0 78 42" fill="none" xmlns="http://www.w3.org/2000/svg">
<path d="M10.7361 0H3.03394V2.38635H5.27217V9.29854H3.03394V11.6849H10.7361V9.29854H8.44848V2.38635H10.7361V0Z" fill="black"/>
<path d="M33.0176 28.6263H40.802V25.9931H36.1939V16.9414H33.0176V28.6263Z" fill="black"/>
<path d="M77.2727 42.0001L74.2939 30.3152H70.5416L67.5627 42.0001H70.6568L71.0847 39.9429H73.7508L74.1787 42.0001H77.2727ZM71.5949 37.573C72.0228 35.5816 72.2202 34.3144 72.3684 32.7674H72.4671C72.6152 34.3144 72.8127 35.5816 73.2406 37.573V37.6059H71.5949V37.573Z" fill="black"/>
<path d="M11.8132 4.96167H74.8946" stroke="black" stroke-width="1.86746"/>
<path d="M0.223877 37.2822H63.3053" stroke="black" stroke-width="1.86746"/>
<path d="M0 22.5718H24.9651" stroke="black" stroke-width="1.86746"/>
<path d="M43.2432 22.5718H74.8953" stroke="black" stroke-width="1.86746"/>
</svg>
